<svg width="14" height="14" viewBox="0 0 14 14" fill="none" xmlns="http://www.w3.org/2000/svg">
<path d="M6.4445 1.38403C6.63649 0.871989 7.36306 0.871989 7.55565 1.38403L8.79759 4.86279C8.84092 4.97611 8.91721 5.07348 9.01641 5.14205C9.1156 5.21061 9.23302 5.24715 9.35317 5.24683H12.4052C12.9692 5.24683 13.2152 5.95665 12.7718 6.30429L10.5999 8.28027C10.5026 8.3559 10.4315 8.46075 10.3968 8.57977C10.3621 8.69879 10.3656 8.82587 10.4067 8.94278L11.1999 12.3421C11.3931 12.8881 10.7679 13.3571 10.2951 13.0209L7.34506 11.1281C7.24403 11.0563 7.12355 11.0178 7.00007 11.0178C6.87659 11.0178 6.75612 11.0563 6.65509 11.1281L3.70502 13.0209C3.23284 13.3571 2.60707 12.8875 2.80026 12.3421L3.59342 8.94278C3.63457 8.82587 3.63804 8.69879 3.60333 8.57977C3.56862 8.46075 3.49752 8.3559 3.40023 8.28027L1.22833 6.30429C0.784349 5.95665 1.03154 5.24683 1.59431 5.24683H4.64638C4.76655 5.24723 4.88401 5.21073 4.98321 5.14216C5.08242 5.07358 5.1587 4.97616 5.20195 4.86279L6.4439 1.38403H6.4445Z" stroke="#87888C" stroke-width="1.19995" stroke-linecap="round" stroke-linejoin="round"/>
</svg>
