<svg width="12" height="13" viewBox="0 0 12 13" fill="none" xmlns="http://www.w3.org/2000/svg">
<mask id="path-1-inside-1_1_387" fill="white">
<path d="M5.52845 0.0187704C6.73984 -0.0777992 7.95167 0.199842 9.0036 0.814956C10.0555 1.43007 10.898 2.35366 11.4194 3.46352C11.9409 4.57337 12.1168 5.81718 11.9239 7.03035C11.731 8.24351 11.1784 9.36886 10.3391 10.2575C9.49986 11.1461 8.41357 11.7561 7.22397 12.0067C6.03438 12.2574 4.79755 12.1369 3.67716 11.6612C2.55677 11.1855 1.60562 10.377 0.949575 9.34275C0.293533 8.30846 -0.0364815 7.09713 0.00320144 5.86903C0.00757751 5.71818 0.0710375 5.57526 0.179621 5.47172C0.288204 5.36818 0.433017 5.31249 0.582201 5.31692C0.731385 5.32134 0.872721 5.38551 0.975116 5.49531C1.07751 5.60511 1.13258 5.75155 1.1282 5.9024C1.09019 7.06491 1.45993 8.20357 2.17202 9.11703C2.88412 10.0305 3.89271 10.6599 5.01944 10.894C6.14618 11.1281 7.31848 10.9517 8.32905 10.3962C9.33962 9.84061 10.1234 8.94159 10.5417 7.85809C10.96 6.7746 10.986 5.57642 10.615 4.47543C10.2441 3.37443 9.50002 2.44155 8.51449 1.84174C7.52897 1.24192 6.36544 1.01381 5.22964 1.19774C4.09384 1.38167 3.05895 1.9658 2.30795 2.84683L2.15495 3.03567H3.5627L3.6392 3.04098C3.7744 3.05909 3.89849 3.12626 3.98837 3.22999C4.07825 3.33372 4.1278 3.46693 4.1278 3.60484C4.1278 3.74275 4.07825 3.87597 3.98837 3.97969C3.89849 4.08342 3.7744 4.15059 3.6392 4.16871L3.5627 4.17326H0.939201L0.862701 4.16871C0.740978 4.15178 0.628082 4.09502 0.541269 4.0071C0.454455 3.91918 0.398499 3.80493 0.381951 3.68182L0.376701 3.60446V0.570882L0.381951 0.494284C0.398499 0.371172 0.454455 0.256925 0.541269 0.169002C0.628082 0.0810801 0.740978 0.0243192 0.862701 0.00739435L0.939201 0.00284394L1.0157 0.00739435C1.13742 0.0243192 1.25032 0.0810801 1.33713 0.169002C1.42395 0.256925 1.4799 0.371172 1.49645 0.494284L1.5017 0.570882L1.50095 2.05203C2.53049 0.869929 3.97537 0.140487 5.52845 0.0187704ZM5.81195 3.03567L5.88845 3.04098C6.01017 3.0579 6.12307 3.11466 6.20988 3.20258C6.29669 3.29051 6.35265 3.40475 6.3692 3.52786L6.37445 3.60446V6.06697L7.68695 6.06773L7.76345 6.07304C7.89808 6.09177 8.02146 6.15916 8.11076 6.26274C8.20007 6.36633 8.24928 6.4991 8.24928 6.63653C8.24928 6.77395 8.20007 6.90673 8.11076 7.01031C8.02146 7.1139 7.89808 7.18128 7.76345 7.20001L7.68695 7.20532H5.81195L5.73545 7.20001C5.61383 7.18313 5.50102 7.12648 5.41422 7.03871C5.32742 6.95093 5.2714 6.83686 5.2547 6.71388L5.24945 6.63577V3.60446L5.2547 3.52786C5.27125 3.40475 5.3272 3.29051 5.41402 3.20258C5.50083 3.11466 5.61373 3.0579 5.73545 3.04098L5.81195 3.03643V3.03567Z"/>
</mask>
<path d="M5.52845 0.0187704C6.73984 -0.0777992 7.95167 0.199842 9.0036 0.814956C10.0555 1.43007 10.898 2.35366 11.4194 3.46352C11.9409 4.57337 12.1168 5.81718 11.9239 7.03035C11.731 8.24351 11.1784 9.36886 10.3391 10.2575C9.49986 11.1461 8.41357 11.7561 7.22397 12.0067C6.03438 12.2574 4.79755 12.1369 3.67716 11.6612C2.55677 11.1855 1.60562 10.377 0.949575 9.34275C0.293533 8.30846 -0.0364815 7.09713 0.00320144 5.86903C0.00757751 5.71818 0.0710375 5.57526 0.179621 5.47172C0.288204 5.36818 0.433017 5.31249 0.582201 5.31692C0.731385 5.32134 0.872721 5.38551 0.975116 5.49531C1.07751 5.60511 1.13258 5.75155 1.1282 5.9024C1.09019 7.06491 1.45993 8.20357 2.17202 9.11703C2.88412 10.0305 3.89271 10.6599 5.01944 10.894C6.14618 11.1281 7.31848 10.9517 8.32905 10.3962C9.33962 9.84061 10.1234 8.94159 10.5417 7.85809C10.96 6.7746 10.986 5.57642 10.615 4.47543C10.2441 3.37443 9.50002 2.44155 8.51449 1.84174C7.52897 1.24192 6.36544 1.01381 5.22964 1.19774C4.09384 1.38167 3.05895 1.9658 2.30795 2.84683L2.15495 3.03567H3.5627L3.6392 3.04098C3.7744 3.05909 3.89849 3.12626 3.98837 3.22999C4.07825 3.33372 4.1278 3.46693 4.1278 3.60484C4.1278 3.74275 4.07825 3.87597 3.98837 3.97969C3.89849 4.08342 3.7744 4.15059 3.6392 4.16871L3.5627 4.17326H0.939201L0.862701 4.16871C0.740978 4.15178 0.628082 4.09502 0.541269 4.0071C0.454455 3.91918 0.398499 3.80493 0.381951 3.68182L0.376701 3.60446V0.570882L0.381951 0.494284C0.398499 0.371172 0.454455 0.256925 0.541269 0.169002C0.628082 0.0810801 0.740978 0.0243192 0.862701 0.00739435L0.939201 0.00284394L1.0157 0.00739435C1.13742 0.0243192 1.25032 0.0810801 1.33713 0.169002C1.42395 0.256925 1.4799 0.371172 1.49645 0.494284L1.5017 0.570882L1.50095 2.05203C2.53049 0.869929 3.97537 0.140487 5.52845 0.0187704ZM5.81195 3.03567L5.88845 3.04098C6.01017 3.0579 6.12307 3.11466 6.20988 3.20258C6.29669 3.29051 6.35265 3.40475 6.3692 3.52786L6.37445 3.60446V6.06697L7.68695 6.06773L7.76345 6.07304C7.89808 6.09177 8.02146 6.15916 8.11076 6.26274C8.20007 6.36633 8.24928 6.4991 8.24928 6.63653C8.24928 6.77395 8.20007 6.90673 8.11076 7.01031C8.02146 7.1139 7.89808 7.18128 7.76345 7.20001L7.68695 7.20532H5.81195L5.73545 7.20001C5.61383 7.18313 5.50102 7.12648 5.41422 7.03871C5.32742 6.95093 5.2714 6.83686 5.2547 6.71388L5.24945 6.63577V3.60446L5.2547 3.52786C5.27125 3.40475 5.3272 3.29051 5.41402 3.20258C5.50083 3.11466 5.61373 3.0579 5.73545 3.04098L5.81195 3.03643V3.03567Z" fill="#87888C"/>
<path d="M0.00320144 5.86903L1.20258 5.90779L1.2027 5.90383L0.00320144 5.86903ZM1.1282 5.9024L2.32757 5.94161L2.3277 5.9372L1.1282 5.9024ZM2.30795 2.84683L1.39471 2.06837L1.385 2.07977L1.37557 2.0914L2.30795 2.84683ZM2.15495 3.03567L1.22257 2.28024L-0.361731 4.23567H2.15495V3.03567ZM3.5627 3.03567L3.64578 1.83855L3.60429 1.83567H3.5627V3.03567ZM3.6392 3.04098L3.79858 1.85161L3.76055 1.84651L3.72228 1.84385L3.6392 3.04098ZM3.6392 4.16871L3.71045 5.36659L3.75467 5.36396L3.79858 5.35808L3.6392 4.16871ZM3.5627 4.17326V5.37326H3.59835L3.63395 5.37114L3.5627 4.17326ZM0.939201 4.17326L0.867954 5.37114L0.903546 5.37326H0.939201V4.17326ZM0.862701 4.16871L0.697438 5.35727L0.744262 5.36379L0.791454 5.36659L0.862701 4.16871ZM0.381951 3.68182L-0.815295 3.76307L-0.812619 3.80251L-0.807354 3.84168L0.381951 3.68182ZM0.376701 3.60446H-0.823299V3.64514L-0.820545 3.68572L0.376701 3.60446ZM0.376701 0.570882L-0.82049 0.488827L-0.823299 0.529807V0.570882H0.376701ZM0.381951 0.494284L-0.807354 0.334427L-0.812565 0.3732L-0.81524 0.412229L0.381951 0.494284ZM0.862701 0.00739435L0.791448 -1.19049L0.74426 -1.18768L0.697438 -1.18117L0.862701 0.00739435ZM0.939201 0.00284394L1.01045 -1.19504L0.939201 -1.19928L0.867948 -1.19504L0.939201 0.00284394ZM1.0157 0.00739435L1.18096 -1.18117L1.13414 -1.18768L1.08695 -1.19049L1.0157 0.00739435ZM1.49645 0.494284L2.69364 0.412231L2.69097 0.3732L2.68576 0.334427L1.49645 0.494284ZM1.5017 0.570882L2.7017 0.57149L2.70172 0.530111L2.69889 0.488829L1.5017 0.570882ZM1.50095 2.05203L0.300951 2.05142L0.299327 5.25884L2.40586 2.84015L1.50095 2.05203ZM5.81195 3.03567L5.89503 1.83855L4.61195 1.7495V3.03567H5.81195ZM5.88845 3.04098L6.05371 1.85241L6.01277 1.84672L5.97153 1.84385L5.88845 3.04098ZM6.3692 3.52786L7.56639 3.44581L7.56371 3.40678L7.5585 3.36801L6.3692 3.52786ZM6.37445 3.60446H7.57445V3.56339L7.57164 3.52241L6.37445 3.60446ZM6.37445 6.06697H5.17445V7.26628L6.37375 7.26697L6.37445 6.06697ZM7.68695 6.06773L7.77002 4.87061L7.72888 4.86775L7.68764 4.86773L7.68695 6.06773ZM7.76345 6.07304L7.92881 4.88449L7.88781 4.87878L7.84652 4.87592L7.76345 6.07304ZM7.76345 7.20001L7.84652 8.39714L7.88781 8.39427L7.92881 8.38857L7.76345 7.20001ZM7.68695 7.20532V8.40532H7.72853L7.77002 8.40244L7.68695 7.20532ZM5.81195 7.20532L5.72887 8.40244L5.77036 8.40532H5.81195V7.20532ZM5.73545 7.20001L5.57041 8.38861L5.61125 8.39428L5.65237 8.39714L5.73545 7.20001ZM5.2547 6.71388L4.0574 6.79435L4.06013 6.83499L4.06561 6.87535L5.2547 6.71388ZM5.24945 6.63577H4.04945V6.67605L4.05215 6.71624L5.24945 6.63577ZM5.24945 3.60446L4.05226 3.52241L4.04945 3.56339V3.60446H5.24945ZM5.2547 3.52786L4.06539 3.36801L4.06018 3.40678L4.05751 3.44581L5.2547 3.52786ZM5.73545 3.04098L5.6642 1.84309L5.61701 1.8459L5.57019 1.85241L5.73545 3.04098ZM5.81195 3.03643L5.8832 4.23431L7.01195 4.16717V3.03643H5.81195ZM5.52845 0.0187704L5.62381 1.21498C6.58988 1.13796 7.55712 1.35923 8.39786 1.85085L9.0036 0.814956L9.60934 -0.22094C8.34622 -0.959546 6.88979 -1.29356 5.43309 -1.17743L5.52845 0.0187704ZM9.0036 0.814956L8.39786 1.85085C9.23878 2.34257 9.91443 3.08224 10.3333 3.97382L11.4194 3.46352L12.5055 2.95322C11.8815 1.62508 10.8723 0.517565 9.60934 -0.22094L9.0036 0.814956ZM11.4194 3.46352L10.3333 3.97382C10.7523 4.86554 10.894 5.86586 10.7388 6.8419L11.9239 7.03035L13.109 7.21879C13.3396 5.7685 13.1295 4.28121 12.5055 2.95322L11.4194 3.46352ZM11.9239 7.03035L10.7388 6.8419C10.5836 7.81788 10.1393 8.7214 9.46669 9.43353L10.3391 10.2575L11.2115 11.0814C12.2175 10.0163 12.8784 8.66915 13.109 7.21879L11.9239 7.03035ZM10.3391 10.2575L9.46669 9.43353C8.79428 10.1455 7.92563 10.6325 6.97655 10.8325L7.22397 12.0067L7.47139 13.181C8.90151 12.8796 10.2054 12.1467 11.2115 11.0814L10.3391 10.2575ZM7.22397 12.0067L6.97655 10.8325C6.02757 11.0325 5.04078 10.9365 4.14614 10.5567L3.67716 11.6612L3.20818 12.7658C4.55432 13.3373 6.04118 13.4823 7.47139 13.181L7.22397 12.0067ZM3.67716 11.6612L4.14614 10.5567C3.25134 10.1767 2.48943 9.53006 1.96292 8.69999L0.949575 9.34275L-0.0637665 9.98551C0.72181 11.224 1.86219 12.1943 3.20818 12.7658L3.67716 11.6612ZM0.949575 9.34275L1.96292 8.69999C1.43631 7.86976 1.17064 6.89602 1.20258 5.90779L0.00320144 5.86903L-1.19617 5.83028C-1.24361 7.29824 -0.849241 8.74716 -0.0637665 9.98551L0.949575 9.34275ZM0.00320144 5.86903L1.2027 5.90383C1.19797 6.06684 1.12942 6.22415 1.00774 6.34017L0.179621 5.47172L-0.648503 4.60326C-0.987344 4.92637 -1.18281 5.36951 -1.19629 5.83424L0.00320144 5.86903ZM0.179621 5.47172L1.00774 6.34017C0.88561 6.45663 0.719909 6.52153 0.546623 6.51639L0.582201 5.31692L0.617779 4.11745C0.146125 4.10346 -0.309201 4.27972 -0.648503 4.60326L0.179621 5.47172ZM0.582201 5.31692L0.546623 6.51639C0.373378 6.51125 0.212198 6.43671 0.0975134 6.31374L0.975116 5.49531L1.85272 4.67689C1.53324 4.33432 1.08939 4.13144 0.617779 4.11745L0.582201 5.31692ZM0.975116 5.49531L0.0975134 6.31374C-0.0167416 6.19122 -0.0760225 6.03059 -0.0712946 5.8676L1.1282 5.9024L2.3277 5.9372C2.34118 5.47251 2.17176 5.01901 1.85272 4.67689L0.975116 5.49531ZM1.1282 5.9024L-0.0711583 5.86319C-0.118298 7.30501 0.340104 8.71889 1.22562 9.85481L2.17202 9.11703L3.11843 8.37925C2.57975 7.68824 2.29868 6.82481 2.32756 5.94161L1.1282 5.9024ZM2.17202 9.11703L1.22562 9.85481C2.11137 10.991 3.36813 11.7766 4.77535 12.0689L5.01944 10.894L5.26353 9.71908C4.41728 9.54327 3.65687 9.06995 3.11843 8.37925L2.17202 9.11703ZM5.01944 10.894L4.77535 12.0689C6.18274 12.3613 7.64655 12.1408 8.90716 11.4477L8.32905 10.3962L7.75094 9.34461C6.9904 9.76272 6.10961 9.89486 5.26353 9.71908L5.01944 10.894ZM8.32905 10.3962L8.90716 11.4477C10.1674 10.7549 11.1418 9.63553 11.6612 8.29031L10.5417 7.85809L9.42225 7.42587C9.10496 8.24765 8.5118 8.92632 7.75094 9.34461L8.32905 10.3962ZM10.5417 7.85809L11.6612 8.29031C12.1805 6.94533 12.2126 5.45869 11.7522 4.09225L10.615 4.47543L9.47786 4.8586C9.75939 5.69415 9.73962 6.60386 9.42225 7.42587L10.5417 7.85809ZM10.615 4.47543L11.7522 4.09225C11.2917 2.72561 10.3671 1.56448 9.13838 0.816665L8.51449 1.84174L7.89061 2.86681C8.63296 3.31862 9.19639 4.02326 9.47786 4.8586L10.615 4.47543ZM8.51449 1.84174L9.13838 0.816665C7.90936 0.0686516 6.45667 -0.216598 5.03781 0.0131729L5.22964 1.19774L5.42147 2.38231C6.2742 2.24422 7.14858 2.41519 7.89061 2.86681L8.51449 1.84174ZM5.22964 1.19774L5.03781 0.0131729C3.61909 0.242921 2.32914 0.972146 1.39471 2.06837L2.30795 2.84683L3.22119 3.62528C3.78875 2.95945 4.5686 2.52042 5.42147 2.38231L5.22964 1.19774ZM2.30795 2.84683L1.37557 2.0914L1.22257 2.28024L2.15495 3.03567L3.08733 3.79109L3.24033 3.60225L2.30795 2.84683ZM2.15495 3.03567V4.23567H3.5627V3.03567V1.83567H2.15495V3.03567ZM3.5627 3.03567L3.47962 4.23279L3.55612 4.2381L3.6392 3.04098L3.72228 1.84385L3.64578 1.83855L3.5627 3.03567ZM3.6392 3.04098L3.47982 4.23034C3.32302 4.20933 3.18193 4.13176 3.08148 4.01583L3.98837 3.22999L4.89526 2.44415C4.61505 2.12077 4.22578 1.90885 3.79858 1.85161L3.6392 3.04098ZM3.98837 3.22999L3.08148 4.01583C2.98132 3.90024 2.9278 3.75408 2.9278 3.60484H4.1278H5.3278C5.3278 3.17979 5.17519 2.76719 4.89526 2.44415L3.98837 3.22999ZM4.1278 3.60484H2.9278C2.9278 3.45561 2.98132 3.30944 3.08148 3.19385L3.98837 3.97969L4.89526 4.76554C5.17519 4.44249 5.3278 4.0299 5.3278 3.60484H4.1278ZM3.98837 3.97969L3.08148 3.19385C3.18193 3.07793 3.32302 3.00035 3.47982 2.97934L3.6392 4.16871L3.79858 5.35808C4.22578 5.30083 4.61505 5.08891 4.89526 4.76554L3.98837 3.97969ZM3.6392 4.16871L3.56795 2.97083L3.49145 2.97538L3.5627 4.17326L3.63395 5.37114L3.71045 5.36659L3.6392 4.16871ZM3.5627 4.17326V2.97326H0.939201V4.17326V5.37326H3.5627V4.17326ZM0.939201 4.17326L1.01045 2.97538L0.933948 2.97083L0.862701 4.16871L0.791454 5.36659L0.867954 5.37114L0.939201 4.17326ZM0.862701 4.16871L1.02796 2.98014C1.16904 2.99976 1.29773 3.06529 1.39516 3.16397L0.541269 4.0071L-0.312626 4.85023C-0.0415631 5.12475 0.312913 5.30381 0.697438 5.35727L0.862701 4.16871ZM0.541269 4.0071L1.39516 3.16397C1.49239 3.26244 1.55331 3.38845 1.57126 3.52196L0.381951 3.68182L-0.807354 3.84168C-0.756312 4.22142 -0.583481 4.57591 -0.312626 4.85023L0.541269 4.0071ZM0.381951 3.68182L1.5792 3.60057L1.57395 3.52321L0.376701 3.60446L-0.820545 3.68572L-0.815295 3.76307L0.381951 3.68182ZM0.376701 3.60446H1.5767V0.570882H0.376701H-0.823299V3.60446H0.376701ZM0.376701 0.570882L1.57389 0.652937L1.57914 0.576339L0.381951 0.494284L-0.81524 0.412229L-0.82049 0.488827L0.376701 0.570882ZM0.381951 0.494284L1.57126 0.654141C1.55331 0.787657 1.49239 0.91366 1.39516 1.01213L0.541269 0.169002L-0.312626 -0.674125C-0.583481 -0.39981 -0.756312 -0.0453137 -0.807354 0.334427L0.381951 0.494284ZM0.541269 0.169002L1.39516 1.01213C1.29773 1.11081 1.16904 1.17634 1.02796 1.19596L0.862701 0.00739435L0.697438 -1.18117C0.312914 -1.12771 -0.0415623 -0.94865 -0.312626 -0.674125L0.541269 0.169002ZM0.862701 0.00739435L0.933954 1.20528L1.01045 1.20073L0.939201 0.00284394L0.867948 -1.19504L0.791448 -1.19049L0.862701 0.00739435ZM0.939201 0.00284394L0.867948 1.20073L0.944448 1.20528L1.0157 0.00739435L1.08695 -1.19049L1.01045 -1.19504L0.939201 0.00284394ZM1.0157 0.00739435L0.850438 1.19596C0.709361 1.17634 0.580675 1.11081 0.483238 1.01213L1.33713 0.169002L2.19103 -0.674125C1.91996 -0.948651 1.56549 -1.12771 1.18096 -1.18117L1.0157 0.00739435ZM1.33713 0.169002L0.483238 1.01213C0.38601 0.91366 0.325092 0.787657 0.307146 0.654141L1.49645 0.494284L2.68576 0.334427C2.63471 -0.0453137 2.46188 -0.39981 2.19103 -0.674125L1.33713 0.169002ZM1.49645 0.494284L0.299259 0.576337L0.304509 0.652935L1.5017 0.570882L2.69889 0.488829L2.69364 0.412231L1.49645 0.494284ZM1.5017 0.570882L0.301701 0.570274L0.300951 2.05142L1.50095 2.05203L2.70095 2.05264L2.7017 0.57149L1.5017 0.570882ZM1.50095 2.05203L2.40586 2.84015C3.23037 1.89346 4.38474 1.31208 5.62221 1.2151L5.52845 0.0187704L5.43469 -1.17756C3.56601 -1.03111 1.8306 -0.1536 0.59604 1.26391L1.50095 2.05203ZM5.81195 3.03567L5.72887 4.23279L5.80537 4.2381L5.88845 3.04098L5.97153 1.84385L5.89503 1.83855L5.81195 3.03567ZM5.88845 3.04098L5.72319 4.22954C5.58211 4.20993 5.45342 4.14439 5.35599 4.04571L6.20988 3.20258L7.06378 2.35946C6.79271 2.08493 6.43823 1.90588 6.05371 1.85241L5.88845 3.04098ZM6.20988 3.20258L5.35599 4.04571C5.25876 3.94724 5.19784 3.82124 5.17989 3.68772L6.3692 3.52786L7.5585 3.36801C7.50746 2.98827 7.33463 2.63377 7.06378 2.35946L6.20988 3.20258ZM6.3692 3.52786L5.17201 3.60992L5.17726 3.68652L6.37445 3.60446L7.57164 3.52241L7.56639 3.44581L6.3692 3.52786ZM6.37445 3.60446H5.17445V6.06697H6.37445H7.57445V3.60446H6.37445ZM6.37445 6.06697L6.37375 7.26697L7.68625 7.26773L7.68695 6.06773L7.68764 4.86773L6.37514 4.86697L6.37445 6.06697ZM7.68695 6.06773L7.60387 7.26485L7.68037 7.27016L7.76345 6.07304L7.84652 4.87592L7.77002 4.87061L7.68695 6.06773ZM7.76345 6.07304L7.59808 7.26159C7.44196 7.23987 7.30171 7.16207 7.20192 7.04633L8.11076 6.26274L9.01961 5.47916C8.7412 5.15625 8.3542 4.94367 7.92881 4.88449L7.76345 6.07304ZM8.11076 6.26274L7.20192 7.04633C7.10241 6.93091 7.04927 6.78524 7.04927 6.63653H8.24928H9.44928C9.44928 6.21297 9.29773 5.80174 9.01961 5.47916L8.11076 6.26274ZM8.24928 6.63653H7.04927C7.04927 6.48782 7.10241 6.34214 7.20192 6.22673L8.11076 7.01031L9.01961 7.7939C9.29773 7.47131 9.44928 7.06009 9.44928 6.63653H8.24928ZM8.11076 7.01031L7.20192 6.22673C7.30171 6.11098 7.44196 6.03319 7.59808 6.01146L7.76345 7.20001L7.92881 8.38857C8.3542 8.32938 8.7412 8.11681 9.01961 7.7939L8.11076 7.01031ZM7.76345 7.20001L7.68037 6.00289L7.60387 6.0082L7.68695 7.20532L7.77002 8.40244L7.84652 8.39714L7.76345 7.20001ZM7.68695 7.20532V6.00532H5.81195V7.20532V8.40532H7.68695V7.20532ZM5.81195 7.20532L5.89502 6.0082L5.81852 6.00289L5.73545 7.20001L5.65237 8.39714L5.72887 8.40244L5.81195 7.20532ZM5.73545 7.20001L5.90049 6.01142C6.04144 6.03099 6.17003 6.0964 6.26746 6.19491L5.41422 7.03871L4.56098 7.8825C4.83201 8.15656 5.18623 8.33527 5.57041 8.38861L5.73545 7.20001ZM5.41422 7.03871L6.26746 6.19491C6.36468 6.29322 6.42567 6.41904 6.44379 6.55241L5.2547 6.71388L4.06561 6.87535C4.11712 7.25467 4.29016 7.60865 4.56098 7.8825L5.41422 7.03871ZM5.2547 6.71388L6.452 6.63341L6.44675 6.5553L5.24945 6.63577L4.05215 6.71624L4.0574 6.79435L5.2547 6.71388ZM5.24945 6.63577H6.44945V3.60446H5.24945H4.04945V6.63577H5.24945ZM5.24945 3.60446L6.44664 3.68652L6.45189 3.60992L5.2547 3.52786L4.05751 3.44581L4.05226 3.52241L5.24945 3.60446ZM5.2547 3.52786L6.444 3.68772C6.42606 3.82124 6.36514 3.94724 6.26791 4.04571L5.41402 3.20258L4.56012 2.35946C4.28926 2.63377 4.11644 2.98827 4.06539 3.36801L5.2547 3.52786ZM5.41402 3.20258L6.26791 4.04571C6.17047 4.14439 6.04179 4.20993 5.90071 4.22954L5.73545 3.04098L5.57019 1.85241C5.18566 1.90588 4.83119 2.08493 4.56012 2.35946L5.41402 3.20258ZM5.73545 3.04098L5.8067 4.23886L5.8832 4.23431L5.81195 3.03643L5.7407 1.83854L5.6642 1.84309L5.73545 3.04098ZM5.81195 3.03643H7.01195V3.03567H5.81195H4.61195V3.03643H5.81195Z" fill="#87888C" mask="url(#path-1-inside-1_1_387)"/>
</svg>
