<svg width="23" height="24" viewBox="0 0 23 24" fill="none" xmlns="http://www.w3.org/2000/svg">
<path d="M10.3482 12C13.3821 12 15.8416 9.57483 15.8416 6.58329C15.8416 3.59175 13.3821 1.16663 10.3482 1.16663C7.31424 1.16663 4.85474 3.59175 4.85474 6.58329C4.85474 9.57483 7.31424 12 10.3482 12Z" stroke="#20AEF3" stroke-width="1.5"/>
<path d="M14.7432 16.3333H21.3353M15.8419 22.8333H2.94987C2.63826 22.8334 2.33021 22.7681 2.04614 22.6418C1.76208 22.5155 1.5085 22.3311 1.30225 22.1008C1.096 21.8704 0.941783 21.5995 0.849842 21.3059C0.7579 21.0124 0.730334 20.7029 0.768973 20.398L1.19746 17.0136C1.29711 16.2274 1.68464 15.5041 2.28718 14.9798C2.88972 14.4555 3.66575 14.1663 4.46936 14.1666H4.855L15.8419 22.8333ZM18.0393 13.0833V19.5833V13.0833Z" stroke="#20AEF3" stroke-width="1.5" stroke-linecap="round" stroke-linejoin="round"/>
</svg>
