<svg width="14" height="14" viewBox="0 0 14 14" fill="none" xmlns="http://www.w3.org/2000/svg">
<path fill-rule="evenodd" clip-rule="evenodd" d="M1 1H1.75V12.25H13V13H1V1ZM12.1128 3.33475C12.1509 3.36596 12.1825 3.40437 12.2058 3.44781C12.2291 3.49124 12.2436 3.53883 12.2484 3.58787C12.2533 3.63691 12.2485 3.68642 12.2342 3.73359C12.2199 3.78075 12.1965 3.82464 12.1652 3.86275L8.79025 7.98775C8.75708 8.02824 8.7158 8.06134 8.66906 8.08491C8.62233 8.10848 8.57118 8.12201 8.5189 8.12463C8.46662 8.12724 8.41438 8.11888 8.36552 8.10009C8.31667 8.08129 8.2723 8.05248 8.23525 8.0155L6.295 6.07525L3.553 9.8455C3.49302 9.92177 3.4058 9.97183 3.30969 9.98514C3.21357 9.99846 3.11604 9.97399 3.03758 9.9169C2.95912 9.8598 2.90585 9.77452 2.88896 9.67897C2.87207 9.58341 2.89287 9.48503 2.947 9.4045L5.947 5.2795C5.97884 5.23564 6.01982 5.1992 6.0671 5.17269C6.11438 5.14619 6.16684 5.13025 6.22088 5.12597C6.27491 5.12169 6.32923 5.12918 6.38009 5.14791C6.43096 5.16665 6.47715 5.19619 6.5155 5.2345L8.47225 7.192L11.5848 3.38725C11.616 3.34911 11.6544 3.3175 11.6978 3.29422C11.7412 3.27094 11.7888 3.25644 11.8379 3.25157C11.8869 3.24669 11.9364 3.25153 11.9836 3.2658C12.0308 3.28007 12.0746 3.3035 12.1128 3.33475Z" fill="#87888C" stroke="#87888C" stroke-width="0.5"/>
</svg>
